<svg width="200" height="200" xmlns="http://www.w3.org/2000/svg">
 <!-- Created with Method Draw - http://github.com/duopixel/Method-Draw/ -->

 <g>
  <title>background</title>
  <rect fill="#fff" id="canvas_background" height="202" width="202" y="-1" x="-1"/>
  <g display="none" overflow="visible" y="0" x="0" height="100%" width="100%" id="canvasGrid">
   <rect fill="url(#gridpattern)" stroke-width="0" y="0" x="0" height="100%" width="100%"/>
  </g>
 </g>
 <g>
  <title>Layer 1</title>
  <ellipse stroke="#000" ry="34.506429" rx="34.291835" id="svg_2" cy="105.79398" cx="105.579385" fill="#000000"/>
  <path stroke="#000" transform="rotate(45 60.578586578369155,61.13779449462889) " id="svg_13" d="m59.311556,68.990857l4.419174,-4.850421l-8.544258,0l-8.544239,0l0,-3.00264l0,-3.002643l8.44622,0c4.645414,0 8.446213,-0.152188 8.446213,-0.338197c0,-0.186005 -1.849325,-2.368695 -4.109606,-4.85042l-4.109619,-4.512228l3.798544,0l3.79853,0l5.801215,6.357827l5.801213,6.357824l-5.812341,6.34566l-5.812339,6.34566l-3.998943,0l-3.998952,0l4.419187,-4.850423l0.000002,0.000001z" stroke-opacity="null" fill="#000000"/>
  <path stroke="#000" transform="rotate(135 150.76753234863278,61.00776290893555) " id="svg_14" d="m149.500499,68.860831l4.41918,-4.85042l-8.54426,0l-8.54424,0l0,-3.00264l0,-3.00265l8.44622,0c4.64542,0 8.44621,-0.15218 8.44621,-0.33819c0,-0.18601 -1.84932,-2.3687 -4.1096,-4.85042l-4.10962,-4.51223l3.79854,0l3.79853,0l5.80122,6.35783l5.80121,6.35782l-5.81234,6.34566l-5.81234,6.34566l-3.99894,0l-3.99895,0l4.41918,-4.85042l0,0z" stroke-opacity="null" fill="#000000"/>
  <path stroke="#000" transform="rotate(-135 151.1967315673828,151.1967010498047) " id="svg_15" d="m149.929687,159.049756l4.41918,-4.85042l-8.54426,0l-8.54424,0l0,-3.00264l0,-3.00265l8.44622,0c4.64542,0 8.44621,-0.15218 8.44621,-0.33819c0,-0.18601 -1.84932,-2.3687 -4.1096,-4.85042l-4.10962,-4.51223l3.79854,0l3.79853,0l5.80122,6.35783l5.80121,6.35782l-5.81234,6.34566l-5.81234,6.34566l-3.99894,0l-3.99895,0l4.41918,-4.85042l0,0z" stroke-opacity="null" fill="#000000"/>
  <path stroke="#000" transform="rotate(-45 59.7202224731445,150.70860290527344) " id="svg_16" d="m58.453184,158.561675l4.41918,-4.85042l-8.54426,0l-8.54424,0l0,-3.00264l0,-3.00265l8.44622,0c4.64542,0 8.44621,-0.15218 8.44621,-0.33819c0,-0.18601 -1.84932,-2.3687 -4.1096,-4.85042l-4.10962,-4.51223l3.79854,0l3.79853,0l5.80122,6.35783l5.80121,6.35782l-5.81234,6.34566l-5.81234,6.34566l-3.99894,0l-3.99895,0l4.41918,-4.85042l0,0z" stroke-opacity="null" fill="#000000"/>
 </g>
</svg>